<svg width="55" height="48" viewBox="0 0 55 48" xmlns="http://www.w3.org/2000/svg">
<path d="M7.84791 39.8227L8.74228 38.2729L7.56379 36.9265C4.36946 33.2771 2.5 28.817 2.5 24C2.5 12.4319 13.3607 2.5 27.5 2.5C41.6393 2.5 52.5 12.4319 52.5 24C52.5 35.5681 41.6393 45.5 27.5 45.5C24.2627 45.5 21.1813 44.949 18.3215 43.9818L17.5033 43.7051L16.6888 43.9924C12.5032 45.4689 8.89407 45.5 4.7374 45.4857C4.72401 45.4761 4.69106 45.4464 4.66439 45.3801C4.59961 45.219 4.60343 45.124 4.60677 45.0975C4.60722 45.094 4.6077 45.0912 4.60813 45.089C4.60856 45.0868 4.60895 45.0853 4.6092 45.0844L4.61003 45.0819C4.61007 45.0818 4.61055 45.0807 4.61215 45.0782C4.61299 45.0769 4.61441 45.0748 4.61661 45.0719C4.90233 44.7547 5.18239 44.3165 5.51865 43.7725C5.96267 43.0542 6.67547 41.8543 7.84791 39.8227Z" stroke-width="5"/>
<path d="M27.6365 15.834V32.1673" stroke-linecap="round" stroke-linejoin="round"/>
<path d="M19.4697 23.998H35.8031" stroke-linecap="round" stroke-linejoin="round"/>
</svg>
