<svg width="24" height="24" viewBox="0 0 24 24" xmlns="http://www.w3.org/2000/svg">
<path fill-rule="evenodd" clip-rule="evenodd" d="M6 2.95703C3.92893 2.95703 2.25 4.63596 2.25 6.70703V20.957C2.25 21.2604 2.43273 21.5339 2.71299 21.6499C2.99324 21.766 3.31583 21.7019 3.53033 21.4874L7.06066 17.957H18C20.0711 17.957 21.75 16.2781 21.75 14.207V6.70703C21.75 4.63596 20.0711 2.95703 18 2.95703H6ZM3.75 6.70703C3.75 5.46439 4.75736 4.45703 6 4.45703H18C19.2426 4.45703 20.25 5.46439 20.25 6.70703V14.207C20.25 15.4497 19.2426 16.457 18 16.457H6.75C6.55109 16.457 6.36032 16.536 6.21967 16.6767L3.75 19.1464V6.70703ZM8.99854 9.70703C8.58432 9.70703 8.24854 10.0428 8.24854 10.457C8.24854 10.8712 8.58432 11.207 8.99854 11.207H14.9985C15.4127 11.207 15.7485 10.8712 15.7485 10.457C15.7485 10.0428 15.4127 9.70703 14.9985 9.70703H8.99854Z"/>
<path d="M11.25 13.457C11.25 13.8712 11.5858 14.207 12 14.207C12.4142 14.207 12.75 13.8712 12.75 13.457V7.45703C12.75 7.04282 12.4142 6.70703 12 6.70703C11.5858 6.70703 11.25 7.04282 11.25 7.45703V13.457Z" />
</svg>
