<svg width="33" height="29" viewBox="0 0 33 29" fill="none" xmlns="http://www.w3.org/2000/svg">
<path d="M4.65593 24.0404L5.16985 23.1274L4.48958 22.3306C2.60724 20.1258 1.5 17.4243 1.5 14.5C1.5 7.47116 7.92178 1.5 16.2059 1.5C24.49 1.5 30.9118 7.47116 30.9118 14.5C30.9118 21.5288 24.49 27.5 16.2059 27.5C14.3057 27.5 12.4964 27.1685 10.8163 26.5859L10.3144 26.4119L9.81477 26.5925C7.36524 27.4784 5.253 27.4999 2.8127 27.4915C2.80385 27.4819 2.79036 27.4637 2.77829 27.4329C2.73826 27.3309 2.73879 27.2657 2.74189 27.2406C2.7434 27.2283 2.74573 27.2223 2.74669 27.2201C2.74729 27.2187 2.74875 27.2155 2.75277 27.2101C2.92104 27.0186 3.08563 26.7545 3.28357 26.4262C3.54509 25.9925 3.96503 25.2677 4.65593 24.0404Z" stroke="#96A0B5" stroke-width="3"/>
</svg>
