<svg width="32" height="32" viewBox="0 0 32 32" fill="none" xmlns="http://www.w3.org/2000/svg">
<path d="M29.3334 15.9993C29.3334 23.3631 23.3638 29.3327 16 29.3327M29.3334 15.9993C29.3334 8.63555 23.3638 2.66602 16 2.66602M29.3334 15.9993H2.66669M16 29.3327C8.63622 29.3327 2.66669 23.3631 2.66669 15.9993M16 29.3327C19.3351 25.6815 21.2304 20.9433 21.3334 15.9993C21.2304 11.0554 19.3351 6.31715 16 2.66602M16 29.3327C12.665 25.6815 10.7697 20.9433 10.6667 15.9993C10.7697 11.0554 12.665 6.31715 16 2.66602M2.66669 15.9993C2.66669 8.63555 8.63622 2.66602 16 2.66602" stroke="#96A0B5" stroke-width="3" stroke-linecap="round" stroke-linejoin="round"/>
</svg>
