<svg width="66" height="60" viewBox="0 0 66 60" fill="none" xmlns="http://www.w3.org/2000/svg">
<g clip-path="url(#clip0_112_1710)">
<path d="M33 57.272H63H33ZM48 4.70599C49.326 3.43857 51.1246 2.72656 52.9999 2.72656C53.9285 2.72656 54.8482 2.90138 55.7059 3.24101C56.5639 3.58064 57.3434 4.07842 58.0001 4.70599C58.6566 5.33354 59.1775 6.07854 59.5328 6.89847C59.8882 7.71843 60.0712 8.59721 60.0712 9.48472C60.0712 10.3722 59.8882 11.251 59.5328 12.0709C59.1775 12.8909 58.6566 13.6359 58.0001 14.2634L16.3333 54.0863L3 57.272L6.33333 44.5288L48 4.70599Z" stroke="#96A0B5" stroke-width="4.36364" stroke-linecap="round" stroke-linejoin="round"/>
</g>
<defs>
<clipPath id="clip0_112_1710">
<rect width="65.4545" height="60" fill="white" transform="translate(0.272705)"/>
</clipPath>
</defs>
</svg>
