<svg width="24" height="24" viewBox="0 0 24 24" xmlns="http://www.w3.org/2000/svg">
<path fill-rule="evenodd" clip-rule="evenodd" d="M3.25 6C3.25 4.48122 4.48122 3.25 6 3.25H10C10.4142 3.25 10.75 3.58579 10.75 4C10.75 4.41421 10.4142 4.75 10 4.75H6C5.30964 4.75 4.75 5.30964 4.75 6V18C4.75 18.6904 5.30964 19.25 6 19.25H10C10.4142 19.25 10.75 19.5858 10.75 20C10.75 20.4142 10.4142 20.75 10 20.75H6C4.48122 20.75 3.25 19.5188 3.25 18V6ZM15.9697 7.96967C16.2626 7.67678 16.7374 7.67678 17.0303 7.96967L20.5303 11.4697C20.8232 11.7626 20.8232 12.2374 20.5303 12.5303L17.0303 16.0303C16.7374 16.3232 16.2626 16.3232 15.9697 16.0303C15.6768 15.7374 15.6768 15.2626 15.9697 14.9697L18.1893 12.75H9C8.58579 12.75 8.25 12.4142 8.25 12C8.25 11.5858 8.58579 11.25 9 11.25H18.1893L15.9697 9.03033C15.6768 8.73744 15.6768 8.26256 15.9697 7.96967Z"/>
</svg>
