<svg width="188" height="188" viewBox="0 0 188 188" fill="none" xmlns="http://www.w3.org/2000/svg">
<path d="M89.286 121H83.9286V105.25C83.9286 86.9187 68.7054 72 50 72C31.2946 72 16.0714 86.9187 16.0714 105.25V121H10.7143C4.79911 121 0 125.703 0 131.5V173.5C0 179.297 4.79911 184 10.7143 184H89.286C95.2009 184 100 179.297 100 173.5V131.5C100 125.703 95.2009 121 89.286 121ZM66.0714 121H33.9286V105.25C33.9286 96.5656 41.1384 89.5 50 89.5C58.8616 89.5 66.0714 96.5656 66.0714 105.25V121Z"/>
<path fill-rule="evenodd" clip-rule="evenodd" d="M60.3127 56.1618C63.6436 46.0752 68.2174 36.4193 73.9419 27.4243C57.6737 32.3171 43.9165 43.0089 35.0723 57.0977C23.2895 60.6306 13.6168 68.3675 8.25781 78.3234C15.645 37.6805 51.2215 6.86328 93.9957 6.86328C142.125 6.86328 181.142 45.8797 181.142 94.0088C181.142 134.176 153.967 167.996 117 178.087V159.634C141.424 151.072 159.619 129.261 162.964 102.821H133.67C132.02 121.532 126.298 139.578 117 155.724V128.843C117 125.306 115.434 122.097 112.893 119.749C114.348 114.215 115.379 108.557 115.966 102.821H102.808V115.814C102.718 115.813 102.627 115.812 102.536 115.812H95.3035V96.2658C95.3035 86.493 91.5112 77.5017 85.1832 70.4238V43.013C81.6767 49.3916 78.8076 56.0966 76.6155 63.0289C71.8086 59.837 66.2877 57.47 60.3127 56.1618ZM102.808 85.1963H115.966C114.445 70.3393 109.948 55.9993 102.808 43.0123V85.1963ZM162.964 85.1963H133.67C131.852 64.5814 125.091 44.7735 114.05 27.4244C139.95 35.2142 159.486 57.7025 162.964 85.1963Z"/>
</svg>
