<svg width="36" height="36" viewBox="0 0 36 36" fill="none" xmlns="http://www.w3.org/2000/svg">
<g clip-path="url(#clip0_123_2583)">
<path d="M11.6206 19.172L11.6318 19.1607M33.9842 11.0555L34.0401 27.1102C34.0417 27.5264 33.9614 27.9388 33.8036 28.3238C33.6458 28.7089 33.4136 29.0591 33.1204 29.3544C32.8271 29.6497 32.4786 29.8843 32.0946 30.0447C31.7107 30.2052 31.2988 30.2885 30.8827 30.2897L12.9032 30.3627C12.107 30.3659 11.3421 30.0525 10.7771 29.4914L2.55349 21.3249C1.37785 20.1574 1.37124 18.2579 2.53873 17.0822L10.706 8.85792C11.2667 8.29335 12.0286 7.97463 12.8243 7.97186L30.816 7.90925C31.6526 7.90883 32.4553 8.23947 33.049 8.82896C33.6426 9.41846 33.9788 10.2189 33.9842 11.0555Z" stroke-linecap="round" stroke-linejoin="round"/>
</g>
<defs>
<clipPath id="clip0_123_2583">
<rect width="36" height="36" fill="white"/>
</clipPath>
</defs>
</svg>
