<svg width="36" height="38" viewBox="0 0 36 38" xmlns="http://www.w3.org/2000/svg">
<g clip-path="url(#clip0_123_2585)">
<path d="M11.6204 19.1651L11.6315 19.1538M33.9889 11.062L34.0351 27.1168C34.0365 27.533 33.9559 27.9453 33.7978 28.3303C33.6398 28.7153 33.4074 29.0653 33.114 29.3604C32.8206 29.6555 32.4719 29.8899 32.0878 30.0502C31.7038 30.2104 31.2919 30.2934 30.8758 30.2944L12.8962 30.3566C12.1 30.3593 11.3353 30.0454 10.7707 29.484L2.55197 21.3125C1.37704 20.1443 1.37157 18.2448 2.53977 17.0699L10.712 8.85045C11.273 8.28622 12.0351 7.96796 12.8308 7.96567L30.8226 7.91391C31.6592 7.91399 32.4617 8.24512 33.055 8.83497C33.6482 9.42482 33.984 10.2255 33.9889 11.062Z" stroke-linecap="round" stroke-linejoin="round"/>
</g>
<defs>
<clipPath id="clip0_123_2585">
<rect width="36" height="38"/>
</clipPath>
</defs>
</svg>
