<svg width="29" height="32" viewBox="0 0 29 32" fill="none" xmlns="http://www.w3.org/2000/svg">
<path d="M2 7.9H4.77778M4.77778 7.9H27M4.77778 7.9V26.8C4.77778 27.5161 5.07044 28.2028 5.59137 28.7092C6.1123 29.2155 6.81884 29.5 7.55556 29.5H21.4444C22.1812 29.5 22.8877 29.2155 23.4086 28.7092C23.9296 28.2028 24.2222 27.5161 24.2222 26.8V7.9H4.77778ZM8.94444 7.9V5.2C8.94444 4.48392 9.2371 3.79716 9.75804 3.29081C10.279 2.78446 10.9855 2.5 11.7222 2.5H17.2778C18.0145 2.5 18.721 2.78446 19.242 3.29081C19.7629 3.79716 20.0556 4.48392 20.0556 5.2V7.9" stroke="#96A0B5" stroke-width="3" stroke-linecap="round" stroke-linejoin="round"/>
</svg>
