<svg width="148" height="32" viewBox="0 0 148 32" fill="none" xmlns="http://www.w3.org/2000/svg">
<path fill-rule="evenodd" clip-rule="evenodd" d="M10.7188 0C9.82535 0 8.92185 0.256501 8.23933 0.703795C7.85559 0.955016 7.37592 1.18418 6.86809 1.42677C5.6009 2.03228 4.16474 2.71833 3.33474 4.16331C2.78539 5.12072 2.81928 5.98656 2.84457 6.61892C2.85203 6.81837 2.85948 6.99719 2.84979 7.16547C2.72619 7.2925 2.47178 7.48764 2.3095 7.61181C2.01598 7.83619 1.7129 8.06822 1.46614 8.35012C-0.524141 10.6226 -0.0120153 12.6947 0.293928 13.9325C0.360274 14.2 0.42278 14.4527 0.441901 14.6339C0.479174 14.9834 0.440947 15.728 0.410592 16.3263C0.381892 16.8958 0.354273 17.4333 0.373319 17.825C0.402765 18.429 0.664458 19.0552 1.00334 19.8107C1.08258 19.9867 1.17181 20.1861 1.2033 20.2767C1.46436 21.0294 1.63859 22.5852 1.69538 23.0962C2.17697 27.401 5.19436 28.9462 7.39799 30.0747C7.78173 30.2713 8.14399 30.4568 8.47522 30.6452C9.08615 30.9938 10.013 31.2191 10.8368 31.2191C12.4734 31.2191 13.6313 30.335 13.8585 28.9126C14.0881 27.4743 14.1115 25.874 14.1024 24.3595V24.3535C14.0685 18.6373 14.0912 3.88876 14.1117 3.17921C14.1359 2.31769 13.8568 1.5602 13.3032 0.988248C12.6867 0.350939 11.7689 0 10.7189 0H10.7188ZM10.78 23.9899C10.78 23.9899 10.7647 23.9644 10.7446 23.9309C10.7524 23.9444 10.761 23.9579 10.7703 23.9735C10.777 23.9848 10.78 23.99 10.78 23.99V23.9899ZM11.607 4.5446C11.6061 4.5446 11.6055 4.54507 11.6051 4.54507H11.6047C11.6056 4.54507 11.6062 4.5446 11.607 4.5446L11.6075 4.54414L11.607 4.5446H11.607ZM10.7188 1.43827C11.7455 1.43827 12.7144 1.92633 12.68 3.13735C12.6572 3.93271 12.6375 18.8294 12.6703 24.3619V24.3503C12.6698 24.2204 12.6688 24.1187 12.6684 24.0324V23.9965V24.0324C12.6694 24.1537 12.6699 24.2765 12.6703 24.3503V24.3627V24.3679C12.6785 25.7453 12.661 27.324 12.444 28.6846C12.3114 29.5183 11.5892 29.7806 10.8365 29.7806C10.1884 29.7806 9.51734 29.5859 9.1818 29.3942C6.87366 28.0786 3.58612 27.1217 3.11837 22.9354C3.00048 21.8816 2.83011 20.5963 2.55518 19.8033C2.39099 19.3296 1.83066 18.3113 1.80345 17.7542C1.7673 17.0145 1.95187 15.2948 1.86551 14.4812C1.72805 13.182 0.636503 11.4743 2.54087 9.2996C2.99292 8.78374 4.16322 8.22089 4.25629 7.49936C4.37896 6.54531 4.04913 5.79789 4.57513 4.88171C5.47051 3.32214 7.58059 2.85231 9.02152 1.90785C9.47446 1.6111 10.1069 1.43801 10.7187 1.43801" fill="#5CD9A6"/>
<path fill-rule="evenodd" clip-rule="evenodd" d="M16.5453 0C15.4952 0 14.5774 0.350924 13.9612 0.988094C13.4076 1.56004 13.1284 2.31753 13.1527 3.17858C13.1732 3.88908 13.1956 18.6381 13.162 24.3533V24.3682C13.1527 25.8741 13.1766 27.4744 13.4059 28.9127C13.6331 30.3351 14.791 31.2192 16.4276 31.2192C17.2514 31.2192 18.1783 30.9939 18.7892 30.6453C19.1205 30.4569 19.4827 30.2714 19.8665 30.0748C22.0701 28.9463 25.0875 27.4011 25.5691 23.0963C25.6259 22.5853 25.8001 21.03 26.0612 20.2773C26.0928 20.1862 26.1819 19.9868 26.2612 19.8108C26.6001 19.0553 26.8616 18.4292 26.8912 17.8246C26.9102 17.4334 26.8826 16.896 26.8539 16.3264C26.8233 15.728 26.7851 14.9835 26.8222 14.634C26.8412 14.4528 26.9039 14.2001 26.9702 13.9326C27.2761 12.6947 27.7883 10.6227 25.798 8.35019C25.5512 8.06831 25.2482 7.83625 24.9546 7.61188C24.7923 7.48773 24.538 7.2926 24.4143 7.16554C24.4046 6.99724 24.412 6.81843 24.4196 6.619C24.4449 5.98664 24.4787 5.1208 23.9294 4.16339C23.0995 2.71841 21.6633 2.03236 20.3961 1.42685C19.8883 1.18428 19.4091 0.955095 19.0253 0.703877C18.3424 0.256575 17.4389 8.23673e-05 16.5454 8.23673e-05L16.5453 0ZM16.4843 23.99C16.4843 23.99 16.4871 23.9847 16.494 23.9735C16.5037 23.9578 16.5115 23.9443 16.5197 23.9308C16.4996 23.9645 16.4843 23.9898 16.4843 23.9898V23.99ZM15.6571 4.54439C15.658 4.54439 15.6585 4.54485 15.6594 4.54485H15.6589C15.6585 4.54485 15.658 4.54439 15.657 4.54439L15.6566 4.54392L15.657 4.54439H15.6571ZM16.5452 1.4382C17.1571 1.4382 17.79 1.61174 18.2425 1.90804C19.6834 2.8525 21.7935 3.32234 22.6889 4.8819C23.2148 5.79808 22.885 6.5455 23.0077 7.49956C23.1008 8.22109 24.2711 8.78393 24.7231 9.29979C26.6274 11.4745 25.5359 13.1822 25.3984 14.4814C25.312 15.295 25.4967 17.0147 25.4605 17.7544C25.4333 18.3115 24.8729 19.3298 24.7087 19.8035C24.4338 20.5964 24.2634 21.8818 24.1455 22.9356C23.6778 27.1219 20.3903 28.0788 18.0821 29.3943C17.7466 29.5861 17.0755 29.7808 16.4274 29.7808C15.6752 29.7808 14.9526 29.5185 14.8199 28.6848C14.6027 27.3242 14.5855 25.7454 14.5936 24.3681V24.3628V24.3505C14.5936 24.3011 14.5941 24.2306 14.5946 24.1534C14.5951 24.0954 14.5956 24.0436 14.5956 23.9967C14.5956 24.0494 14.5951 24.1026 14.5946 24.1534C14.5946 24.2114 14.5941 24.2762 14.5936 24.3505V24.3621C14.6264 18.8295 14.607 3.93289 14.5839 3.13752C14.5496 1.92602 15.5185 1.43845 16.5451 1.43845" fill="#5CD9A6"/>
<path d="M51.7515 6.77502C50.6532 5.86095 49.1298 5.3125 47.3584 5.3125C45.1619 5.3125 42.5757 5.86095 40.4854 6.77502C40.1666 6.92128 40.0249 7.14065 39.954 7.43316L37.0135 24.1425C36.9426 24.5812 37.1552 24.8372 37.5449 24.8372H41.6191C41.9734 24.8372 42.186 24.6544 42.2568 24.2522L44.6659 10.541C45.1619 10.2851 45.9413 10.1023 46.7207 10.1023C48.315 10.1023 49.059 11.126 48.6693 13.4661L46.8624 24.1425C46.7916 24.5447 47.0042 24.8372 47.4293 24.8372H51.4326C51.7869 24.8372 52.0349 24.6178 52.0703 24.2522L53.8063 14.2339C54.0189 12.9907 54.0189 11.7842 53.8417 10.7604C54.4794 10.3948 55.3651 10.1023 56.2154 10.1023C57.9159 10.1023 58.7308 11.126 58.3411 13.4661L56.5342 24.1425C56.4988 24.5447 56.676 24.8372 57.1011 24.8372H61.1044C61.4587 24.8372 61.7067 24.6178 61.7421 24.2522L63.5135 14.2339C64.3638 9.04193 61.8839 5.3125 56.9948 5.3125C55.2234 5.3125 53.4166 5.86095 51.7515 6.77502Z" fill="#36362F"/>
<path d="M66.9077 12.3326L65.9866 17.6343C65.1717 22.3875 68.3957 25.3125 73.0367 25.3125C76.1189 25.3125 78.528 24.435 80.4411 23.0822C80.76 22.8993 80.7954 22.5703 80.6537 22.2046L79.2011 19.3893C79.024 18.9871 78.7406 18.9505 78.3863 19.2065C76.9692 20.084 75.3395 20.669 73.7807 20.669C71.8322 20.669 70.9819 19.7184 71.3362 17.7805L71.4424 17.2686H81.2914C81.6457 17.2686 81.8582 17.0858 81.9291 16.7202L82.5314 13.1736C83.4879 7.79879 80.264 5.3125 75.7292 5.3125C71.4424 5.3125 67.758 7.54285 66.9077 12.3326ZM77.4298 12.6982L77.2526 13.6123H72.0802L72.2573 12.6251C72.5761 10.9067 73.7453 9.95601 75.2687 9.95601C77.0755 9.95601 77.6777 11.2357 77.4298 12.6982Z" fill="#36362F"/>
<path d="M98.4581 6.77502C97.3599 5.86095 95.8365 5.3125 94.0651 5.3125C91.8685 5.3125 89.2823 5.86095 87.1921 6.77502C86.8732 6.92128 86.7315 7.14065 86.6606 7.43316L83.7201 24.1425C83.6493 24.5812 83.8618 24.8372 84.2516 24.8372H88.3258C88.68 24.8372 88.8926 24.6544 88.9635 24.2522L91.3726 10.541C91.8685 10.2851 92.648 10.1023 93.4274 10.1023C95.0216 10.1023 95.7656 11.126 95.3759 13.4661L93.5691 24.1425C93.4982 24.5447 93.7108 24.8372 94.1359 24.8372H98.1393C98.4935 24.8372 98.7415 24.6178 98.777 24.2522L100.513 14.2339C100.726 12.9907 100.726 11.7842 100.548 10.7604C101.186 10.3948 102.072 10.1023 102.922 10.1023C104.623 10.1023 105.437 11.126 105.048 13.4661L103.241 24.1425C103.205 24.5447 103.383 24.8372 103.808 24.8372H107.811C108.165 24.8372 108.413 24.6178 108.449 24.2522L110.22 14.2339C111.07 9.04193 108.59 5.3125 103.701 5.3125C101.93 5.3125 100.123 5.86095 98.4581 6.77502Z" fill="#36362F"/>
<path d="M113.614 12.3326L112.693 17.6343C111.878 22.3875 115.102 25.3125 119.743 25.3125C122.826 25.3125 125.235 24.435 127.148 23.0822C127.467 22.8993 127.502 22.5703 127.36 22.2046L125.908 19.3893C125.731 18.9871 125.447 18.9505 125.093 19.2065C123.676 20.084 122.046 20.669 120.487 20.669C118.539 20.669 117.689 19.7184 118.043 17.7805L118.149 17.2686H127.998C128.352 17.2686 128.565 17.0858 128.636 16.7202L129.238 13.1736C130.195 7.79879 126.971 5.3125 122.436 5.3125C118.149 5.3125 114.465 7.54285 113.614 12.3326ZM124.136 12.6982L123.959 13.6123H118.787L118.964 12.6251C119.283 10.9067 120.452 9.95601 121.975 9.95601C123.782 9.95601 124.384 11.2357 124.136 12.6982Z" fill="#36362F"/>
<path d="M147.475 5.82438H143.011C142.657 5.82438 142.444 5.93407 142.303 6.22658L139.008 11.7842L137.591 6.33627C137.484 5.97064 137.272 5.82438 136.918 5.82438H132.631C132.206 5.82438 132.028 6.08033 132.17 6.51908L135.182 14.9652L128.698 24.0694C128.415 24.4715 128.592 24.8372 129.123 24.8372H133.729C134.048 24.8372 134.296 24.6909 134.473 24.3984L138.016 18.9871L139.61 24.2887C139.716 24.6544 139.929 24.8372 140.283 24.8372H144.641C145.101 24.8372 145.314 24.5447 145.137 24.1059L141.842 15.3673L147.865 6.55565C148.148 6.15345 147.971 5.82438 147.475 5.82438Z" fill="#36362F"/>
</svg>
