<svg width="153" height="174" viewBox="0 0 153 174" fill="none" xmlns="http://www.w3.org/2000/svg">
<path fill-rule="evenodd" clip-rule="evenodd" d="M34.9179 50.4793C34.2912 50.4793 33.6566 50.3293 33.067 50.0179C31.1177 48.9882 30.3715 46.5688 31.3966 44.6134C31.941 43.5758 44.8741 19.2076 61.9793 20.3066C64.1782 20.442 65.8459 22.3419 65.7105 24.548C65.5757 26.7541 63.6524 28.424 61.488 28.2933C51.5292 27.6104 41.4775 42.5541 38.4448 48.34C37.7332 49.7005 36.3494 50.4794 34.918 50.4794" fill="#5CD9A6"/>
<path fill-rule="evenodd" clip-rule="evenodd" d="M7.55548 96.8305C5.85053 96.8305 4.27308 95.7208 3.74726 93.9975C3.10456 91.8848 4.28917 89.6521 6.38698 89.0039C7.34824 88.7024 28.7132 81.7294 23.4497 61.1465C22.9026 59.0044 24.188 56.8224 26.3178 56.2755C28.4529 55.7206 30.6226 57.0144 31.1697 59.1538C36.9059 81.604 18.9961 93.4987 8.72133 96.6544C8.33372 96.7732 7.9432 96.8315 7.55559 96.8315" fill="#5CD9A6"/>
<path fill-rule="evenodd" clip-rule="evenodd" d="M50.3367 69.0643C50.0872 69.0643 49.8375 69.0414 49.5851 68.9914C47.4207 68.5751 46.0052 66.4812 46.4169 64.3098C51.9433 35.268 75.9028 34.9746 76.2427 34.9746H76.2453C78.4442 34.9826 80.2208 36.7832 80.2102 38.9919C80.1996 41.1954 78.4202 42.9746 76.232 42.9773C75.4619 42.9853 58.5028 43.4281 54.2457 65.8116C53.8793 67.7296 52.2087 69.0634 50.3366 69.0634" fill="#5CD9A6"/>
<path fill-rule="evenodd" clip-rule="evenodd" d="M14.6925 123.086C13.949 123.086 13.1999 122.878 12.5308 122.443C10.6825 121.24 10.1566 118.762 11.3518 116.908C13.9623 112.867 37.4358 77.4148 58.4527 77.3774H58.4581C60.657 77.3774 62.4389 79.1648 62.4416 81.3708C62.447 83.5795 60.6676 85.3748 58.4661 85.3801C44.2742 85.4072 24.4709 111.29 18.0388 121.262C17.2767 122.443 15.9967 123.086 14.6927 123.086" fill="#5CD9A6"/>
<path fill-rule="evenodd" clip-rule="evenodd" d="M37.9475 142.289C37.1799 142.289 36.4072 142.067 35.7247 141.606C33.9003 140.371 33.4169 137.884 34.6465 136.052C37.9076 131.186 39.9897 128.142 41.5007 126.278C38.5556 108.875 49.1385 102.71 55.8122 100.576C57.9101 99.8982 60.1462 101.067 60.8154 103.174C61.482 105.279 60.3241 107.53 58.2288 108.2C50.4052 110.702 47.638 116.312 49.5209 125.851C49.7598 127.062 50.1211 128.887 48.5621 130.447C48.4107 130.597 48.2514 130.733 48.0787 130.858C47.0216 132.117 43.827 136.687 41.2536 140.523C40.4836 141.67 39.2247 142.289 37.9473 142.289" fill="#5CD9A6"/>
<path fill-rule="evenodd" clip-rule="evenodd" d="M60.7538 138.928C59.102 138.928 57.5591 137.888 56.9881 136.234C55.0069 130.474 46.3521 131.568 46.2618 131.584C44.0842 131.856 42.0765 130.338 41.7844 128.148C41.4922 125.958 43.0219 123.944 45.2049 123.651C50.8322 122.89 61.2531 124.134 64.5196 133.617C65.2365 135.706 64.1344 137.984 62.0551 138.707C61.6248 138.857 61.184 138.928 60.7539 138.928" fill="#5CD9A6"/>
<path fill-rule="evenodd" clip-rule="evenodd" d="M48.1659 160.474C45.1942 160.474 42.0791 160.157 38.9719 159.506C32.909 158.236 21.8296 154.6 15.7694 144.527C14.6302 142.636 15.2329 140.177 17.1158 139.032C18.9986 137.893 21.4445 138.493 22.5838 140.387C25.8715 145.851 32.439 149.964 40.5998 151.674C49.0608 153.443 56.0001 152.063 58.8655 150.025C60.6555 148.75 63.1491 149.177 64.4185 150.98C65.6904 152.786 65.263 155.283 63.4678 156.558C59.8667 159.116 54.3217 160.474 48.1659 160.474" fill="#5CD9A6"/>
<path fill-rule="evenodd" clip-rule="evenodd" d="M60.2837 0C55.3123 0 50.2851 1.4272 46.4875 3.91599C44.3524 5.31381 41.6834 6.58889 38.8578 7.93868C31.807 11.3078 23.8161 15.1251 19.1979 23.1651C16.1412 28.4923 16.3298 33.3099 16.4705 36.8284C16.512 37.9381 16.5535 38.9331 16.4995 39.8694C15.8118 40.5763 14.3963 41.662 13.4933 42.3529C11.8601 43.6014 10.1737 44.8925 8.80076 46.461C-2.27337 59.1052 0.576151 70.6344 2.27845 77.5221C2.64761 79.0105 2.9954 80.4164 3.10179 81.4248C3.30918 83.3694 3.09648 87.5121 2.92758 90.8412C2.76789 94.0103 2.61422 97.0007 2.72019 99.1801C2.88403 102.541 4.34012 106.025 6.22567 110.229C6.66659 111.208 7.16308 112.318 7.33832 112.822C8.79089 117.01 9.76029 125.666 10.0763 128.51C12.7559 152.462 29.545 161.06 41.8062 167.339C43.9414 168.433 45.957 169.465 47.8001 170.513C51.1993 172.453 56.3566 173.706 60.9403 173.706C70.0466 173.706 76.4892 168.787 77.7533 160.873C79.0307 152.87 79.1609 143.966 79.1103 135.539V135.506C78.9216 103.7 79.0481 21.6375 79.1621 17.6895C79.2969 12.8959 77.744 8.68111 74.6634 5.49872C71.2333 1.95266 66.1265 0 60.284 0H60.2837ZM60.6239 133.482C60.6239 133.482 60.5389 133.341 60.4269 133.154C60.4704 133.229 60.5181 133.304 60.57 133.391C60.6073 133.454 60.6239 133.483 60.6239 133.483V133.482ZM65.2258 25.2867C65.2205 25.2867 65.2175 25.2893 65.2153 25.2893H65.2127C65.2181 25.2893 65.221 25.2867 65.2258 25.2867L65.2284 25.2841L65.2258 25.2867H65.2258ZM60.2837 8.0027C65.9961 8.0027 71.387 10.7183 71.1958 17.4565C71.0693 21.882 70.9596 104.769 71.1419 135.552V135.488C71.1393 134.765 71.1336 134.199 71.1314 133.719V133.519V133.719C71.1367 134.394 71.1396 135.077 71.1419 135.488V135.556V135.586C71.1875 143.25 71.0901 152.034 69.883 159.604C69.1447 164.243 65.1267 165.702 60.9387 165.702C57.3324 165.702 53.5985 164.619 51.7315 163.552C38.8888 156.232 20.5965 150.908 17.994 127.615C17.338 121.752 16.39 114.6 14.8603 110.188C13.9467 107.552 10.829 101.886 10.6776 98.7865C10.4765 94.6704 11.5034 85.1019 11.0229 80.575C10.2581 73.3459 4.18458 63.844 14.7807 51.744C17.2959 48.8737 23.8076 45.7419 24.3255 41.7273C25.008 36.4188 23.1728 32.2601 26.0995 27.1624C31.0815 18.4848 42.8222 15.8706 50.8397 10.6155C53.3599 8.96432 56.8787 8.00124 60.2832 8.00124" fill="#5CD9A6"/>
<path fill-rule="evenodd" clip-rule="evenodd" d="M92.7028 0C86.8603 0 81.7534 1.95258 78.325 5.49786C75.2444 8.68025 73.6908 12.895 73.8263 17.686C73.9403 21.6393 74.0652 103.704 73.8781 135.504V135.588C73.8263 143.966 73.959 152.871 75.2353 160.873C76.4993 168.788 82.942 173.707 92.0483 173.707C96.632 173.707 101.789 172.453 105.189 170.514C107.032 169.466 109.047 168.433 111.182 167.34C123.444 161.06 140.233 152.463 142.912 128.511C143.228 125.667 144.198 117.013 145.65 112.825C145.827 112.318 146.322 111.209 146.763 110.23C148.649 106.026 150.104 102.542 150.269 99.178C150.374 97.0013 150.221 94.0109 150.061 90.8419C149.891 87.5125 149.678 83.3698 149.885 81.4251C149.991 80.4169 150.339 79.011 150.708 77.5225C152.411 70.6348 155.26 59.1056 144.186 46.4614C142.813 44.8929 141.127 43.6018 139.493 42.3533C138.59 41.6626 137.175 40.5768 136.487 39.8698C136.433 38.9334 136.474 37.9385 136.516 36.8288C136.657 33.3103 136.846 28.4927 133.789 23.1655C129.171 15.1256 121.18 11.3083 114.129 7.93914C111.304 6.58944 108.637 5.31425 106.502 3.91645C102.702 1.42761 97.6748 0.000458301 92.7034 0.000458301L92.7028 0ZM92.3635 133.483C92.3635 133.483 92.3792 133.454 92.4174 133.391C92.4714 133.304 92.5149 133.229 92.5605 133.154C92.4485 133.341 92.3635 133.482 92.3635 133.482V133.483ZM87.7607 25.2855C87.7661 25.2855 87.769 25.2881 87.7738 25.2881H87.7712C87.7686 25.2881 87.7658 25.2855 87.7606 25.2855L87.7581 25.2829L87.7606 25.2855H87.7607ZM92.7027 8.00232C96.1072 8.00232 99.6286 8.96788 102.146 10.6165C110.164 15.8716 121.904 18.4859 126.886 27.1634C129.813 32.2612 127.978 36.4199 128.66 41.7283C129.178 45.743 135.69 48.8747 138.205 51.745C148.801 63.8451 142.727 73.347 141.963 80.5761C141.482 85.1029 142.51 94.6715 142.308 98.7875C142.157 101.887 139.039 107.553 138.125 110.189C136.596 114.601 135.648 121.753 134.992 127.616C132.389 150.909 114.097 156.234 101.254 163.553C99.3871 164.62 95.6532 165.703 92.0468 165.703C87.8615 165.703 83.8408 164.244 83.1025 159.605C81.8941 152.035 81.7987 143.25 81.8437 135.587V135.557V135.489C81.8437 135.214 81.8463 134.822 81.849 134.392C81.8516 134.07 81.8544 133.781 81.8544 133.52C81.8544 133.814 81.8518 134.11 81.849 134.392C81.849 134.715 81.8465 135.075 81.8437 135.489V135.553C82.0262 104.77 81.9183 21.883 81.7898 17.4575C81.599 10.7166 86.9896 8.00367 92.7019 8.00367" fill="#5CD9A6"/>
<path fill-rule="evenodd" clip-rule="evenodd" d="M118.071 50.4774C116.643 50.4774 115.259 49.7012 114.545 48.3434C111.499 42.5574 101.465 27.6084 91.4987 28.2939C89.3635 28.4273 87.4116 26.7547 87.2762 24.5487C87.1414 22.3426 88.8086 20.4433 91.0074 20.3073C108.115 19.1975 121.048 43.5764 121.593 44.6141C122.618 46.5694 121.872 48.9836 119.925 50.0159C119.335 50.328 118.698 50.4774 118.071 50.4774" fill="#5CD9A6"/>
<path fill-rule="evenodd" clip-rule="evenodd" d="M145.429 96.8294C145.041 96.8294 144.651 96.7731 144.266 96.6544C133.991 93.4987 116.081 81.604 121.817 59.1538C122.364 57.0144 124.529 55.7206 126.669 56.2755C128.799 56.8223 130.084 59.0044 129.537 61.1465C124.269 81.7534 145.689 88.7184 146.603 89.0038C148.698 89.66 149.877 91.8981 149.232 94.0055C148.701 95.7235 147.131 96.8305 145.429 96.8305" fill="#5CD9A6"/>
<path fill-rule="evenodd" clip-rule="evenodd" d="M102.653 69.0634C100.781 69.0634 99.1105 67.7295 98.744 65.8117C94.4631 43.2974 77.7005 42.9773 76.7923 42.9773C76.7716 42.9747 76.7695 42.9773 76.7612 42.9773C74.5703 42.9773 72.7883 41.1953 72.7777 38.992C72.7671 36.7832 74.5436 34.9826 76.7426 34.9746H76.7452C77.0824 34.9746 101.047 35.2654 106.574 64.3098C106.985 66.4812 105.57 68.5752 103.405 68.9914C103.153 69.0393 102.903 69.0643 102.654 69.0643" fill="#5CD9A6"/>
<path fill-rule="evenodd" clip-rule="evenodd" d="M138.294 123.086C136.99 123.086 135.71 122.443 134.948 121.262C128.508 111.29 108.694 85.4068 94.5233 85.3801C92.3217 85.3747 90.5424 83.5796 90.5477 81.3708C90.5503 79.1647 92.3323 77.3774 94.5312 77.3774H94.5366C115.551 77.4149 139.024 112.867 141.635 116.908C142.83 118.762 142.304 121.24 140.458 122.441C139.787 122.878 139.038 123.086 138.294 123.086" fill="#5CD9A6"/>
<path fill-rule="evenodd" clip-rule="evenodd" d="M106.643 131.568C107.057 131.635 107.522 131.641 108.029 131.539C107.567 131.632 107.094 131.637 106.643 131.568ZM115.043 142.286C113.765 142.286 112.506 141.667 111.736 140.52C109.163 136.687 105.971 132.12 104.911 130.856C104.739 130.733 104.576 130.594 104.425 130.445C102.866 128.884 103.227 127.06 103.466 125.849C105.349 116.309 102.582 110.699 94.7584 108.197C92.663 107.528 91.5051 105.279 92.1717 103.172C92.8383 101.064 95.077 99.8958 97.1777 100.573C103.849 102.707 114.429 108.872 111.486 126.273C113 128.137 115.08 131.181 118.343 136.049C119.573 137.882 119.09 140.368 117.265 141.603C116.583 142.065 115.81 142.286 115.042 142.286" fill="#5CD9A6"/>
<path fill-rule="evenodd" clip-rule="evenodd" d="M92.2332 138.927C91.8028 138.927 91.3621 138.854 90.932 138.706C88.8526 137.983 87.7505 135.705 88.4676 133.616C91.734 124.133 102.142 122.892 107.782 123.65C109.965 123.943 111.495 125.957 111.203 128.147C110.911 130.335 108.908 131.882 106.741 131.583C106.592 131.567 97.9456 130.567 95.999 136.233C95.4281 137.887 93.8851 138.927 92.2333 138.927" fill="#5CD9A6"/>
<path fill-rule="evenodd" clip-rule="evenodd" d="M104.821 160.475C98.6651 160.475 93.1201 159.117 89.519 156.559C87.7238 155.284 87.2962 152.787 88.5683 150.981C89.835 149.178 92.3314 148.751 94.1213 150.026C96.9868 152.064 103.926 153.443 112.387 151.675C120.548 149.965 127.115 145.851 130.403 140.388C131.542 138.494 133.988 137.897 135.871 139.033C137.754 140.177 138.357 142.637 137.217 144.528C131.157 154.601 120.078 158.237 114.015 159.507C110.908 160.157 107.793 160.475 104.821 160.475" fill="#5CD9A6"/>
</svg>
